<svg width="24" height="24" viewBox="0 0 24 24" fill="none" xmlns="http://www.w3.org/2000/svg">
<g clip-path="url(#clip0_2164_4667)">
<path d="M4.35981 23.881V22.2926C4.35981 21.6835 4.07162 21.2865 3.57766 21.2865C3.33072 21.2865 3.06316 21.3924 2.87791 21.7366C2.73391 21.4453 2.52813 21.2865 2.21941 21.2865C2.01353 21.2865 1.80784 21.3659 1.64313 21.6571V21.3394H1.21094V23.881H1.64313V22.4778C1.64313 22.0278 1.82837 21.8159 2.11656 21.8159C2.40456 21.8159 2.54875 22.0543 2.54875 22.4778V23.881H2.98094V22.4778C2.98094 22.0278 3.18663 21.8159 3.45419 21.8159C3.74238 21.8159 3.88638 22.0543 3.88638 22.4778V23.881H4.35981ZM10.7602 21.3394H10.0606V20.5717H9.62837V21.3394H9.23734V21.8424H9.62828V23.0074C9.62828 23.5899 9.81353 23.934 10.3075 23.934C10.4928 23.934 10.6984 23.8546 10.8426 23.7487L10.7191 23.2721C10.5956 23.378 10.4516 23.4045 10.3487 23.4045C10.1429 23.4045 10.0606 23.2457 10.0606 22.9809V21.8424H10.7602V21.3394ZM14.4236 21.2864C14.1767 21.2864 14.012 21.4453 13.9091 21.6571V21.3394H13.4769V23.881H13.9091V22.4514C13.9091 22.0278 14.0531 21.7895 14.3207 21.7895C14.403 21.7895 14.5059 21.8161 14.5882 21.8425L14.7117 21.313C14.6294 21.2865 14.5059 21.2865 14.4236 21.2865M8.88747 21.5513C8.68159 21.366 8.3935 21.2866 8.08478 21.2866C7.59091 21.2866 7.26166 21.6043 7.26166 22.1073C7.26166 22.531 7.50859 22.7692 7.94078 22.8487L8.14656 22.8752C8.37297 22.928 8.49644 23.0075 8.49644 23.1399C8.49644 23.3252 8.33181 23.4576 8.04363 23.4576C7.75544 23.4576 7.52912 23.3252 7.38503 23.1929L7.17925 23.6164C7.40566 23.8282 7.71438 23.9341 8.023 23.9341C8.59928 23.9341 8.92863 23.59 8.92863 23.1134C8.92863 22.6633 8.66106 22.425 8.24941 22.3456L8.04363 22.3191C7.85838 22.2926 7.71437 22.2397 7.71437 22.0809C7.71437 21.8955 7.85838 21.7897 8.08478 21.7897C8.33181 21.7897 8.57875 21.922 8.70222 22.0014L8.88747 21.5513ZM20.3714 21.2866C20.1243 21.2866 19.9597 21.4455 19.8568 21.6572V21.3396H19.4246V23.8812H19.8568V22.4515C19.8568 22.028 20.0009 21.7897 20.2683 21.7897C20.3507 21.7897 20.4537 21.8162 20.536 21.8426L20.6595 21.3132C20.5772 21.2866 20.4537 21.2866 20.3714 21.2866ZM14.8558 22.6104C14.8558 23.3781 15.2673 23.9341 15.9054 23.9341C16.1935 23.9341 16.3993 23.8547 16.6051 23.643L16.3993 23.1929C16.2347 23.3517 16.07 23.4311 15.8848 23.4311C15.5349 23.4311 15.288 23.1134 15.288 22.6104C15.288 22.1339 15.5349 21.8161 15.8848 21.7897C16.07 21.7897 16.2347 21.869 16.3993 22.028L16.6051 21.5779C16.3993 21.366 16.1935 21.2866 15.9054 21.2866C15.2673 21.2866 14.8558 21.8426 14.8558 22.6104ZM18.8484 22.6104V21.3396H18.4162V21.6572C18.2721 21.419 18.0663 21.2866 17.7988 21.2866C17.2431 21.2866 16.8109 21.8426 16.8109 22.6104C16.8109 23.3781 17.2431 23.9341 17.7988 23.9341C18.0869 23.9341 18.2928 23.8018 18.4162 23.5635V23.8812H18.8484V22.6104ZM17.2637 22.6104C17.2637 22.1603 17.4901 21.7897 17.8605 21.7897C18.2103 21.7897 18.4574 22.1339 18.4574 22.6104C18.4574 23.0605 18.2103 23.4311 17.8605 23.4311C17.4901 23.4045 17.2637 23.0605 17.2637 22.6104ZM12.098 21.2866C11.5217 21.2866 11.1101 21.8161 11.1101 22.6104C11.1101 23.4047 11.5217 23.9341 12.1186 23.9341C12.4067 23.9341 12.6948 23.8282 12.9213 23.59L12.7154 23.1929C12.5508 23.3517 12.345 23.4576 12.1392 23.4576C11.8716 23.4576 11.6041 23.2988 11.5423 22.8486H13.0036V22.6369C13.0242 21.8161 12.6538 21.2866 12.098 21.2866ZM12.0979 21.7631C12.3654 21.7631 12.5508 21.975 12.5918 22.3722H11.5628C11.604 22.028 11.7892 21.7631 12.0979 21.7631ZM22.8203 22.6104V20.3335H22.3881V21.6572C22.244 21.419 22.0382 21.2866 21.7707 21.2866C21.215 21.2866 20.7828 21.8426 20.7828 22.6104C20.7828 23.3781 21.215 23.9341 21.7707 23.9341C22.0589 23.9341 22.2647 23.8018 22.3881 23.5635V23.8812H22.8203V22.6104ZM21.2357 22.6104C21.2357 22.1603 21.462 21.7897 21.8325 21.7897C22.1823 21.7897 22.4293 22.1339 22.4293 22.6104C22.4293 23.0605 22.1823 23.4311 21.8325 23.4311C21.462 23.4045 21.2357 23.0605 21.2357 22.6104ZM6.78813 22.6104V21.3396H6.35594V21.6572C6.21184 21.419 6.00606 21.2866 5.7385 21.2866C5.18284 21.2866 4.75066 21.8426 4.75066 22.6104C4.75066 23.3781 5.18284 23.9341 5.7385 23.9341C6.02669 23.9341 6.23247 23.8018 6.35594 23.5635V23.8812H6.78813V22.6104ZM5.18284 22.6104C5.18284 22.1603 5.40925 21.7897 5.77966 21.7897C6.12953 21.7897 6.37656 22.1339 6.37656 22.6104C6.37656 23.0605 6.12953 23.4311 5.77966 23.4311C5.40925 23.4045 5.18284 23.0605 5.18284 22.6104Z" fill="black"/>
<path d="M8.74609 2.03857H15.2289V17.0236H8.74609V2.03857Z" fill="#FF5F00"/>
<path d="M9.15834 9.53114C9.15834 6.48651 10.2697 3.78597 11.9778 2.03855C10.7225 0.767759 9.13781 0 7.40906 0C3.31341 0 0 4.26247 0 9.53114C0 14.7998 3.31341 19.0623 7.40897 19.0623C9.13772 19.0623 10.7224 18.2945 11.9778 17.0236C10.2697 15.3027 9.15834 12.5758 9.15834 9.53114Z" fill="#EB001B"/>
<path d="M23.9778 9.53114C23.9778 14.7997 20.6644 19.0623 16.5688 19.0623C14.8401 19.0623 13.2554 18.2945 12 17.0236C13.7287 15.2763 14.8195 12.5758 14.8195 9.53114C14.8195 6.48651 13.7081 3.78597 12 2.03855C13.2553 0.767759 14.8401 0 16.5688 0C20.6644 0 23.9778 4.28901 23.9778 9.53114Z" fill="#F79E1B"/>
</g>
<defs>
<clipPath id="clip0_2164_4667">
<rect width="24" height="24" fill="white"/>
</clipPath>
</defs>
</svg>
